<svg width="109" height="35" viewBox="0 0 109 35" fill="none" xmlns="http://www.w3.org/2000/svg">
<path d="M58.94 12.86C59.6867 12.9933 60.32 13.3867 60.84 14.04C61.36 14.6933 61.62 15.4333 61.62 16.26C61.62 16.9667 61.4333 17.6067 61.06 18.18C60.7 18.74 60.1733 19.1867 59.48 19.52C58.7867 19.84 57.98 20 57.06 20H51.5V6.1H56.8C57.7467 6.1 58.56 6.26 59.24 6.58C59.92 6.9 60.4333 7.33333 60.78 7.88C61.1267 8.41333 61.3 9.01333 61.3 9.68C61.3 10.48 61.0867 11.1467 60.66 11.68C60.2333 12.2133 59.66 12.6067 58.94 12.86ZM53.78 11.94H56.6C57.3467 11.94 57.9267 11.7733 58.34 11.44C58.7667 11.0933 58.98 10.6 58.98 9.96C58.98 9.33333 58.7667 8.84667 58.34 8.5C57.9267 8.14 57.3467 7.96 56.6 7.96H53.78V11.94ZM56.86 18.14C57.6333 18.14 58.24 17.9533 58.68 17.58C59.12 17.2067 59.34 16.6867 59.34 16.02C59.34 15.34 59.1067 14.8 58.64 14.4C58.1733 14 57.5533 13.8 56.78 13.8H53.78V18.14H56.86ZM74.1977 14.22C74.1977 14.6333 74.171 15.0067 74.1177 15.34H65.6977C65.7643 16.22 66.091 16.9267 66.6777 17.46C67.2643 17.9933 67.9843 18.26 68.8377 18.26C70.0643 18.26 70.931 17.7467 71.4377 16.72H73.8977C73.5643 17.7333 72.9577 18.5667 72.0777 19.22C71.211 19.86 70.131 20.18 68.8377 20.18C67.7843 20.18 66.8377 19.9467 65.9977 19.48C65.171 19 64.5177 18.3333 64.0377 17.48C63.571 16.6133 63.3377 15.6133 63.3377 14.48C63.3377 13.3467 63.5643 12.3533 64.0177 11.5C64.4843 10.6333 65.131 9.96667 65.9577 9.5C66.7977 9.03333 67.7577 8.8 68.8377 8.8C69.8777 8.8 70.8043 9.02667 71.6177 9.48C72.431 9.93333 73.0643 10.5733 73.5177 11.4C73.971 12.2133 74.1977 13.1533 74.1977 14.22ZM71.8177 13.5C71.8043 12.66 71.5043 11.9867 70.9177 11.48C70.331 10.9733 69.6043 10.72 68.7377 10.72C67.951 10.72 67.2777 10.9733 66.7177 11.48C66.1577 11.9733 65.8243 12.6467 65.7177 13.5H71.8177ZM78.7214 10.58C79.0547 10.02 79.4947 9.58667 80.0414 9.28C80.6014 8.96 81.2614 8.8 82.0214 8.8V11.16H81.4414C80.5481 11.16 79.8681 11.3867 79.4014 11.84C78.9481 12.2933 78.7214 13.08 78.7214 14.2V20H76.4414V8.98H78.7214V10.58ZM85.2772 7.52C84.8639 7.52 84.5172 7.38 84.2372 7.1C83.9572 6.82 83.8172 6.47333 83.8172 6.06C83.8172 5.64667 83.9572 5.3 84.2372 5.02C84.5172 4.74 84.8639 4.6 85.2772 4.6C85.6772 4.6 86.0172 4.74 86.2972 5.02C86.5772 5.3 86.7172 5.64667 86.7172 6.06C86.7172 6.47333 86.5772 6.82 86.2972 7.1C86.0172 7.38 85.6772 7.52 85.2772 7.52ZM86.3972 8.98V20H84.1172V8.98H86.3972ZM92.0506 10.84V16.94C92.0506 17.3533 92.144 17.6533 92.3306 17.84C92.5306 18.0133 92.864 18.1 93.3306 18.1H94.7306V20H92.9306C91.904 20 91.1173 19.76 90.5706 19.28C90.024 18.8 89.7506 18.02 89.7506 16.94V10.84H88.4506V8.98H89.7506V6.24H92.0506V8.98H94.7306V10.84H92.0506ZM96.072 14.44C96.072 13.3333 96.2987 12.3533 96.752 11.5C97.2187 10.6467 97.8454 9.98667 98.632 9.52C99.432 9.04 100.312 8.8 101.272 8.8C102.139 8.8 102.892 8.97333 103.532 9.32C104.185 9.65333 104.705 10.0733 105.092 10.58V8.98H107.392V20H105.092V18.36C104.705 18.88 104.179 19.3133 103.512 19.66C102.845 20.0067 102.085 20.18 101.232 20.18C100.285 20.18 99.4187 19.94 98.632 19.46C97.8454 18.9667 97.2187 18.2867 96.752 17.42C96.2987 16.54 96.072 15.5467 96.072 14.44ZM105.092 14.48C105.092 13.72 104.932 13.06 104.612 12.5C104.305 11.94 103.899 11.5133 103.392 11.22C102.885 10.9267 102.339 10.78 101.752 10.78C101.165 10.78 100.619 10.9267 100.112 11.22C99.6054 11.5 99.192 11.92 98.872 12.48C98.5654 13.0267 98.412 13.68 98.412 14.44C98.412 15.2 98.5654 15.8667 98.872 16.44C99.192 17.0133 99.6054 17.4533 100.112 17.76C100.632 18.0533 101.179 18.2 101.752 18.2C102.339 18.2 102.885 18.0533 103.392 17.76C103.899 17.4667 104.305 17.04 104.612 16.48C104.932 15.9067 105.092 15.24 105.092 14.48Z" fill="#B1B6C4"/>
<path d="M12 11V24" stroke="#B1B6C4" stroke-width="2" stroke-linecap="round"/>
<path d="M21 11L21 24" stroke="#B1B6C4" stroke-width="2" stroke-linecap="round"/>
<path d="M3 11L3 24" stroke="#B1B6C4" stroke-width="2" stroke-linecap="round"/>
<path d="M21 24C21 24 20 22 16.5 22C13 22 12 24 12 24" stroke="#B1B6C4" stroke-width="2" stroke-linecap="round"/>
<path d="M12 24C12 24 11 22 7.5 22C4 22 3 24 3 24" stroke="#B1B6C4" stroke-width="2" stroke-linecap="round"/>
<path d="M21 11C21 11 20 9 16.5 9C13 9 12 11 12 11" stroke="#B1B6C4" stroke-width="2" stroke-linecap="round"/>
<path d="M12 11C12 11 11 9 7.5 9C4 9 3 11 3 11" stroke="#B1B6C4" stroke-width="2" stroke-linecap="round"/>
</svg>
