<svg width="165" height="30" viewBox="0 0 165 30" fill="none" xmlns="http://www.w3.org/2000/svg">
<path d="M58.04 6.1C59.52 6.1 60.8133 6.38667 61.92 6.96C63.04 7.52 63.9 8.33333 64.5 9.4C65.1133 10.4533 65.42 11.6867 65.42 13.1C65.42 14.5133 65.1133 15.74 64.5 16.78C63.9 17.82 63.04 18.62 61.92 19.18C60.8133 19.7267 59.52 20 58.04 20H53.5V6.1H58.04ZM58.04 18.14C59.6667 18.14 60.9133 17.7 61.78 16.82C62.6467 15.94 63.08 14.7 63.08 13.1C63.08 11.4867 62.6467 10.2267 61.78 9.32C60.9133 8.41333 59.6667 7.96 58.04 7.96H55.78V18.14H58.04ZM66.9197 14.44C66.9197 13.3333 67.1464 12.3533 67.5997 11.5C68.0664 10.6467 68.693 9.98667 69.4797 9.52C70.2797 9.04 71.1597 8.8 72.1197 8.8C72.9864 8.8 73.7397 8.97333 74.3797 9.32C75.033 9.65333 75.553 10.0733 75.9397 10.58V8.98H78.2397V20H75.9397V18.36C75.553 18.88 75.0264 19.3133 74.3597 19.66C73.693 20.0067 72.933 20.18 72.0797 20.18C71.133 20.18 70.2664 19.94 69.4797 19.46C68.693 18.9667 68.0664 18.2867 67.5997 17.42C67.1464 16.54 66.9197 15.5467 66.9197 14.44ZM75.9397 14.48C75.9397 13.72 75.7797 13.06 75.4597 12.5C75.153 11.94 74.7464 11.5133 74.2397 11.22C73.733 10.9267 73.1864 10.78 72.5997 10.78C72.013 10.78 71.4664 10.9267 70.9597 11.22C70.453 11.5 70.0397 11.92 69.7197 12.48C69.413 13.0267 69.2597 13.68 69.2597 14.44C69.2597 15.2 69.413 15.8667 69.7197 16.44C70.0397 17.0133 70.453 17.4533 70.9597 17.76C71.4797 18.0533 72.0264 18.2 72.5997 18.2C73.1864 18.2 73.733 18.0533 74.2397 17.76C74.7464 17.4667 75.153 17.04 75.4597 16.48C75.7797 15.9067 75.9397 15.24 75.9397 14.48ZM85.2344 20.18C84.3677 20.18 83.5877 20.0267 82.8944 19.72C82.2144 19.4 81.6744 18.9733 81.2744 18.44C80.8744 17.8933 80.661 17.2867 80.6344 16.62H82.9944C83.0344 17.0867 83.2544 17.48 83.6544 17.8C84.0677 18.1067 84.581 18.26 85.1944 18.26C85.8344 18.26 86.3277 18.14 86.6744 17.9C87.0344 17.6467 87.2144 17.3267 87.2144 16.94C87.2144 16.5267 87.0144 16.22 86.6144 16.02C86.2277 15.82 85.6077 15.6 84.7544 15.36C83.9277 15.1333 83.2544 14.9133 82.7344 14.7C82.2144 14.4867 81.761 14.16 81.3744 13.72C81.001 13.28 80.8144 12.7 80.8144 11.98C80.8144 11.3933 80.9877 10.86 81.3344 10.38C81.681 9.88667 82.1744 9.5 82.8144 9.22C83.4677 8.94 84.2144 8.8 85.0544 8.8C86.3077 8.8 87.3144 9.12 88.0744 9.76C88.8477 10.3867 89.261 11.2467 89.3144 12.34H87.0344C86.9944 11.8467 86.7944 11.4533 86.4344 11.16C86.0744 10.8667 85.5877 10.72 84.9744 10.72C84.3744 10.72 83.9144 10.8333 83.5944 11.06C83.2744 11.2867 83.1144 11.5867 83.1144 11.96C83.1144 12.2533 83.221 12.5 83.4344 12.7C83.6477 12.9 83.9077 13.06 84.2144 13.18C84.521 13.2867 84.9744 13.4267 85.5744 13.6C86.3744 13.8133 87.0277 14.0333 87.5344 14.26C88.0544 14.4733 88.501 14.7933 88.8744 15.22C89.2477 15.6467 89.441 16.2133 89.4544 16.92C89.4544 17.5467 89.281 18.1067 88.9344 18.6C88.5877 19.0933 88.0944 19.48 87.4544 19.76C86.8277 20.04 86.0877 20.18 85.2344 20.18ZM97.618 8.8C98.458 8.8 99.2046 8.98 99.858 9.34C100.525 9.7 101.045 10.2333 101.418 10.94C101.805 11.6467 101.998 12.5 101.998 13.5V20H99.738V13.84C99.738 12.8533 99.4913 12.1 98.998 11.58C98.5046 11.0467 97.8313 10.78 96.978 10.78C96.1246 10.78 95.4446 11.0467 94.938 11.58C94.4446 12.1 94.198 12.8533 94.198 13.84V20H91.918V5.2H94.198V10.26C94.5846 9.79333 95.0713 9.43333 95.658 9.18C96.258 8.92667 96.9113 8.8 97.618 8.8ZM107.186 10.62C107.573 10.0867 108.1 9.65333 108.766 9.32C109.446 8.97333 110.2 8.8 111.026 8.8C112 8.8 112.88 9.03333 113.666 9.5C114.453 9.96667 115.073 10.6333 115.526 11.5C115.98 12.3533 116.206 13.3333 116.206 14.44C116.206 15.5467 115.98 16.54 115.526 17.42C115.073 18.2867 114.446 18.9667 113.646 19.46C112.86 19.94 111.986 20.18 111.026 20.18C110.173 20.18 109.413 20.0133 108.746 19.68C108.093 19.3467 107.573 18.92 107.186 18.4V20H104.906V5.2H107.186V10.62ZM113.886 14.44C113.886 13.68 113.726 13.0267 113.406 12.48C113.1 11.92 112.686 11.5 112.166 11.22C111.66 10.9267 111.113 10.78 110.526 10.78C109.953 10.78 109.406 10.9267 108.886 11.22C108.38 11.5133 107.966 11.94 107.646 12.5C107.34 13.06 107.186 13.72 107.186 14.48C107.186 15.24 107.34 15.9067 107.646 16.48C107.966 17.04 108.38 17.4667 108.886 17.76C109.406 18.0533 109.953 18.2 110.526 18.2C111.113 18.2 111.66 18.0533 112.166 17.76C112.686 17.4533 113.1 17.0133 113.406 16.44C113.726 15.8667 113.886 15.2 113.886 14.44ZM123.241 20.18C122.201 20.18 121.261 19.9467 120.421 19.48C119.581 19 118.921 18.3333 118.441 17.48C117.961 16.6133 117.721 15.6133 117.721 14.48C117.721 13.36 117.968 12.3667 118.461 11.5C118.954 10.6333 119.628 9.96667 120.481 9.5C121.334 9.03333 122.288 8.8 123.341 8.8C124.394 8.8 125.348 9.03333 126.201 9.5C127.054 9.96667 127.728 10.6333 128.221 11.5C128.714 12.3667 128.961 13.36 128.961 14.48C128.961 15.6 128.708 16.5933 128.201 17.46C127.694 18.3267 127.001 19 126.121 19.48C125.254 19.9467 124.294 20.18 123.241 20.18ZM123.241 18.2C123.828 18.2 124.374 18.06 124.881 17.78C125.401 17.5 125.821 17.08 126.141 16.52C126.461 15.96 126.621 15.28 126.621 14.48C126.621 13.68 126.468 13.0067 126.161 12.46C125.854 11.9 125.448 11.48 124.941 11.2C124.434 10.92 123.888 10.78 123.301 10.78C122.714 10.78 122.168 10.92 121.661 11.2C121.168 11.48 120.774 11.9 120.481 12.46C120.188 13.0067 120.041 13.68 120.041 14.48C120.041 15.6667 120.341 16.5867 120.941 17.24C121.554 17.88 122.321 18.2 123.241 18.2ZM130.455 14.44C130.455 13.3333 130.682 12.3533 131.135 11.5C131.602 10.6467 132.228 9.98667 133.015 9.52C133.815 9.04 134.695 8.8 135.655 8.8C136.522 8.8 137.275 8.97333 137.915 9.32C138.568 9.65333 139.088 10.0733 139.475 10.58V8.98H141.775V20H139.475V18.36C139.088 18.88 138.562 19.3133 137.895 19.66C137.228 20.0067 136.468 20.18 135.615 20.18C134.668 20.18 133.802 19.94 133.015 19.46C132.228 18.9667 131.602 18.2867 131.135 17.42C130.682 16.54 130.455 15.5467 130.455 14.44ZM139.475 14.48C139.475 13.72 139.315 13.06 138.995 12.5C138.688 11.94 138.282 11.5133 137.775 11.22C137.268 10.9267 136.722 10.78 136.135 10.78C135.548 10.78 135.002 10.9267 134.495 11.22C133.988 11.5 133.575 11.92 133.255 12.48C132.948 13.0267 132.795 13.68 132.795 14.44C132.795 15.2 132.948 15.8667 133.255 16.44C133.575 17.0133 133.988 17.4533 134.495 17.76C135.015 18.0533 135.562 18.2 136.135 18.2C136.722 18.2 137.268 18.0533 137.775 17.76C138.282 17.4667 138.688 17.04 138.995 16.48C139.315 15.9067 139.475 15.24 139.475 14.48ZM147.05 10.58C147.383 10.02 147.823 9.58667 148.37 9.28C148.93 8.96 149.59 8.8 150.35 8.8V11.16H149.77C148.876 11.16 148.196 11.3867 147.73 11.84C147.276 12.2933 147.05 13.08 147.05 14.2V20H144.77V8.98H147.05V10.58ZM151.685 14.44C151.685 13.3333 151.912 12.3533 152.365 11.5C152.832 10.6467 153.459 9.98667 154.245 9.52C155.045 9.04 155.932 8.8 156.905 8.8C157.625 8.8 158.332 8.96 159.025 9.28C159.732 9.58667 160.292 10 160.705 10.52V5.2H163.005V20H160.705V18.34C160.332 18.8733 159.812 19.3133 159.145 19.66C158.492 20.0067 157.739 20.18 156.885 20.18C155.925 20.18 155.045 19.94 154.245 19.46C153.459 18.9667 152.832 18.2867 152.365 17.42C151.912 16.54 151.685 15.5467 151.685 14.44ZM160.705 14.48C160.705 13.72 160.545 13.06 160.225 12.5C159.919 11.94 159.512 11.5133 159.005 11.22C158.499 10.9267 157.952 10.78 157.365 10.78C156.779 10.78 156.232 10.9267 155.725 11.22C155.219 11.5 154.805 11.92 154.485 12.48C154.179 13.0267 154.025 13.68 154.025 14.44C154.025 15.2 154.179 15.8667 154.485 16.44C154.805 17.0133 155.219 17.4533 155.725 17.76C156.245 18.0533 156.792 18.2 157.365 18.2C157.952 18.2 158.499 18.0533 159.005 17.76C159.512 17.4667 159.919 17.04 160.225 16.48C160.545 15.9067 160.705 15.24 160.705 14.48Z" fill="#B1B6C4"/>
<path d="M21.25 11.25L17.2058 17.3162C16.7799 17.9551 15.8228 17.8955 15.4794 17.2087L14.5206 15.2913C14.1772 14.6045 13.2201 14.5449 12.7942 15.1838L8.75 21.25" stroke="#B1B6C4" stroke-width="2" stroke-linecap="round" stroke-linejoin="round"/>
<rect x="3.75" y="3.75" width="22.5" height="22.5" rx="2" stroke="#B1B6C4" stroke-width="2"/>
</svg>
