<svg width="4454" height="917" viewBox="0 0 4454 917" fill="none" xmlns="http://www.w3.org/2000/svg">
<path d="M2471.34 734V175.902H2587.55V734H2471.34ZM2812.89 741.645C2735.68 741.645 2672.22 698.068 2672.22 616.264V614.735C2672.22 526.051 2740.26 484.003 2837.36 484.003C2879.41 484.003 2907.69 490.883 2937.51 500.822V493.941C2937.51 445.012 2907.69 419.019 2849.59 419.019C2804.48 419.019 2773.9 426.664 2736.44 441.19L2707.39 352.505C2752.5 333.392 2796.84 319.631 2866.41 319.631C2930.63 319.631 2974.97 335.686 3004.79 365.502C3035.37 396.083 3049.13 441.19 3049.13 496.235V734H2936.75V689.658C2908.46 721.003 2870.23 741.645 2812.89 741.645ZM2848.06 661.371C2903.11 661.371 2939.04 632.319 2939.04 589.506V568.864C2918.4 559.69 2893.17 553.574 2864.88 553.574C2815.19 553.574 2784.61 573.451 2784.61 610.148V611.677C2784.61 643.022 2810.6 661.371 2848.06 661.371ZM3151.42 279.112V175.902H3273.74V279.112H3151.42ZM3154.48 734V324.218H3270.68V734H3154.48ZM3379.83 734V324.218H3496.03V382.322C3522.79 347.918 3557.96 316.573 3616.06 316.573C3704.75 316.573 3755.2 373.912 3755.2 468.712V734H3639V505.409C3639 450.364 3613.77 422.077 3568.66 422.077C3523.55 422.077 3496.03 450.364 3496.03 505.409V734H3379.83ZM3842.39 734V652.197L4054.17 418.254H3849.28V324.218H4198.66V406.022L3986.12 639.964H4198.66V734H3842.39ZM4282.36 734V611.677H4406.21V734H4282.36Z" fill="#3C486B"/>
<path d="M245.41 743.174C122.323 743.174 32.1098 647.609 32.1098 531.403V529.874C32.1098 412.902 121.558 316.573 246.939 316.573C324.156 316.573 371.556 342.567 410.546 385.38L339.446 461.832C312.688 434.309 288.223 416.725 246.175 416.725C188.071 416.725 146.787 467.183 146.787 528.345V529.874C146.787 593.329 187.307 643.022 250.762 643.022C289.752 643.022 316.511 626.203 344.798 599.445L412.84 668.251C373.085 711.829 327.214 743.174 245.41 743.174ZM678.617 743.174C552.472 743.174 457.672 649.903 457.672 531.403V529.874C457.672 412.138 552.472 316.573 680.146 316.573C806.292 316.573 901.092 409.844 901.092 528.345V529.874C901.092 647.609 806.292 743.174 678.617 743.174ZM680.146 643.022C746.659 643.022 786.414 592.564 786.414 531.403V529.874C786.414 469.477 742.837 416.725 678.617 416.725C612.104 416.725 572.349 467.183 572.349 528.345V529.874C572.349 590.271 615.927 643.022 680.146 643.022ZM985.237 734V324.218H1101.44V382.322C1128.2 347.918 1163.37 316.573 1222.24 316.573C1276.52 316.573 1316.27 339.509 1337.68 381.557C1373.61 338.744 1416.43 316.573 1472.23 316.573C1558.63 316.573 1610.61 368.56 1610.61 467.183V734H1494.41V505.409C1494.41 450.364 1469.94 422.077 1426.36 422.077C1382.79 422.077 1356.03 450.364 1356.03 505.409V734H1239.82V505.409C1239.82 450.364 1215.36 422.077 1171.78 422.077C1128.2 422.077 1101.44 450.364 1101.44 505.409V734H985.237Z" fill="#3C486B"/>
<path d="M2110.39 168.096C2105.09 168.474 2099.8 170.011 2094.93 172.826L2073.86 184.996C2056.53 195.005 2050.48 217.599 2060.48 234.934L2279.41 614.379C2289.41 631.714 2311.95 637.699 2329.27 627.69L2350.34 615.52C2367.67 605.511 2373.69 583.012 2363.69 565.677L2290.15 438.205C2317.03 415.939 2324.92 376.735 2306.92 345.53C2296.88 328.129 2280.63 316.408 2262.57 311.565C2255.79 309.748 2248.76 308.9 2241.71 309.069C2233.82 309.258 2225.93 310.841 2218.29 313.68L2144.77 186.255C2138.52 175.421 2127.39 168.964 2115.69 168.096C2113.94 167.966 2112.16 167.97 2110.39 168.096ZM2258.27 265.025C2249.72 279.204 2271.33 291.724 2279.36 277.242L2303.69 235.124C2308.58 227.082 2302.88 216.77 2293.47 216.632C2293.02 216.631 2292.57 216.654 2292.12 216.703C2288.11 217.068 2284.55 219.391 2282.59 222.907L2258.27 265.025ZM1820.37 465.991C1826.65 467.637 1832.01 471.728 1835.26 477.352L1956.94 688.181C1963.65 699.825 1959.67 714.713 1948.03 721.434L1882.84 759.084L1921.11 825.47C1927.19 836.01 1931.8 840.809 1943.18 847.385L2016.89 890.05C2045.89 906.802 2024.93 950.969 2099.94 867.779C2174.95 784.588 2106.67 801.338 2077.68 784.588L2018.15 750.17L1988.79 699.186C2084.85 647.263 2144.72 633.18 2259.74 628.664C2259.27 627.929 2258.76 627.239 2258.32 626.478L2039.39 247.032C2038.96 246.284 2038.62 245.509 2038.23 244.75C1985.74 369.435 1942.04 422.582 1820.37 465.991ZM2383.24 290.624C2380.93 290.59 2378.66 291.217 2376.69 292.431L2334.5 316.675C2320.42 324.82 2332.63 345.95 2346.71 337.805L2388.8 313.442C2399.65 307.444 2395.63 290.957 2383.24 290.624ZM2353.76 411.37C2337.18 411.002 2337.18 436.077 2353.76 435.709H2402.41C2418.99 436.077 2418.99 411.002 2402.41 411.37H2353.76ZM1814.24 489.593L1729.98 538.295C1706.64 551.781 1698.71 581.419 1712.19 604.777L1748.68 668.025L1785.16 731.274C1798.64 754.632 1828.26 762.586 1851.61 749.101L1935.87 700.399C1917.62 668.778 1832.48 521.214 1814.24 489.593ZM1795.64 543.976C1808.49 543.215 1813.72 560.188 1802.58 566.651L1760.41 590.943C1746.55 598.907 1734.1 578.533 1748.2 569.932L1790.32 545.592C1791.98 544.595 1793.7 544.1 1795.64 543.976ZM1820.08 586.094C1832.8 585.456 1838.05 602.159 1826.85 608.817L1784.76 633.18C1770.69 641.325 1758.48 620.195 1772.55 612.05L1814.64 587.711C1816.31 586.713 1818.15 586.218 1820.08 586.094ZM1851.18 650.959L1809.08 675.299C1795.01 683.443 1782.8 662.336 1796.87 654.192L1838.97 629.853C1840.97 628.66 1843.19 628.154 1845.52 628.236C1857.63 628.655 1861.93 644.626 1851.18 650.959ZM1728.97 617.06C1711.67 627.077 1679.91 670.5 1689.91 687.825L1702.04 708.955C1712.05 726.29 1763.99 718.987 1781.35 708.955L1728.97 617.06ZM1875.53 693.102L1833.41 717.441C1819.27 725.357 1807.24 704.721 1821.2 696.405L1863.32 672.066C1864.98 671.068 1866.8 670.527 1868.73 670.402C1881.49 669.736 1886.62 686.685 1875.53 693.102Z" fill="#F9D949"/>
</svg>
