<svg width="51" height="52" viewBox="0 0 51 52" fill="none" xmlns="http://www.w3.org/2000/svg">
<path d="M29.5674 0.435247C29.2066 0.460923 28.8468 0.565522 28.5154 0.757022L27.082 1.58491C25.9034 2.2658 25.4918 3.80287 26.1721 4.98214L41.0654 30.7953C41.7458 31.9746 43.2789 32.3817 44.4575 31.7008L45.8909 30.8729C47.0694 30.192 47.4795 28.6614 46.7991 27.4822L41.7959 18.8104C43.6246 17.2957 44.1616 14.6287 42.9368 12.5059C42.2538 11.3221 41.1486 10.5247 39.9197 10.1952C39.4588 10.0717 38.9806 10.014 38.5008 10.0254C37.9643 10.0383 37.4271 10.146 36.9074 10.3391L31.9058 1.67061C31.4806 0.93356 30.724 0.494258 29.9278 0.435247C29.8084 0.426392 29.6877 0.426674 29.5674 0.435247ZM39.6272 7.02922C39.0454 7.99379 40.516 8.84551 41.0622 7.86034L42.717 4.99508C43.0495 4.44796 42.662 3.74651 42.0221 3.73708C41.9915 3.73699 41.9606 3.73861 41.93 3.74193C41.6576 3.76678 41.415 3.92475 41.282 4.16396L39.6272 7.02922ZM9.83734 20.7006C10.2646 20.8126 10.6295 21.0909 10.8506 21.4735L19.1279 35.816C19.5849 36.6081 19.3136 37.6209 18.5219 38.0781L14.0875 40.6394L16.6909 45.1556C17.1046 45.8726 17.4179 46.1991 18.1922 46.6464L23.2067 49.5489C25.1792 50.6885 23.7537 53.6931 28.8564 48.0338C33.959 42.3744 29.3144 43.5139 27.3421 42.3744L23.2924 40.033L21.295 36.5646C27.8299 33.0324 31.9027 32.0743 39.7274 31.7671C39.6956 31.7171 39.6603 31.6702 39.6304 31.6184L24.7371 5.80518C24.7077 5.7543 24.6849 5.70157 24.6579 5.64995C21.0873 14.1321 18.1147 17.7476 9.83734 20.7006ZM48.1291 8.77069C47.9718 8.76837 47.817 8.81101 47.6831 8.89357L44.813 10.5429C43.8552 11.097 44.6859 12.5344 45.6436 11.9804L48.5072 10.323C49.245 9.91488 48.9718 8.79331 48.1291 8.77069ZM46.1236 16.9849C44.9957 16.9598 44.9957 18.6657 46.1236 18.6406H49.4332C50.5612 18.6657 50.5612 16.9598 49.4332 16.9849H46.1236ZM9.42041 22.3063L3.68836 25.6194C2.10049 26.5368 1.5612 28.5531 2.47796 30.1421L4.96017 34.4448L7.44239 38.7475C8.35915 40.3365 10.3745 40.8777 11.9624 39.9603L17.6945 36.6471C16.4534 34.496 10.6615 24.4574 9.42041 22.3063ZM8.15506 26.0059C9.02918 25.9541 9.38481 27.1087 8.62694 27.5485L5.75849 29.201C4.81589 29.7427 3.96848 28.3567 4.92785 27.7716L7.79307 26.1158C7.90623 26.048 8.02339 26.0143 8.15506 26.0059ZM9.81795 28.8711C10.6831 28.8277 11.0404 29.964 10.2785 30.417L7.41492 32.0743C6.45804 32.6284 5.6274 31.191 6.58428 30.6369L9.44788 28.9811C9.56104 28.9132 9.68629 28.8796 9.81795 28.8711ZM11.9333 33.2838L9.06973 34.9396C8.11256 35.4936 7.28192 34.0578 8.23909 33.5037L11.1027 31.848C11.2391 31.7668 11.39 31.7324 11.5487 31.738C12.3723 31.7665 12.6648 32.853 11.9333 33.2838ZM3.61949 30.9777C2.4425 31.6592 0.282126 34.6131 0.962125 35.7917L1.78792 37.2292C2.4683 38.4085 6.00223 37.9117 7.18318 37.2292L3.61949 30.9777ZM13.5898 36.1507L10.7245 37.8065C9.76255 38.345 8.94421 36.9412 9.8939 36.3755L12.7591 34.7197C12.8723 34.6518 12.9959 34.615 13.1276 34.6065C13.9952 34.5612 14.3444 35.7142 13.5898 36.1507Z" fill="#F9D949"/>
</svg>
