<svg width="30" height="30" viewBox="0 0 30 30" fill="none" xmlns="http://www.w3.org/2000/svg">
<path d="M3.75 11.75C3.75 7.97876 3.75 6.09315 4.92157 4.92157C6.09315 3.75 7.97876 3.75 11.75 3.75H18.25C22.0212 3.75 23.9069 3.75 25.0784 4.92157C26.25 6.09315 26.25 7.97876 26.25 11.75V18.25C26.25 22.0212 26.25 23.9069 25.0784 25.0784C23.9069 26.25 22.0212 26.25 18.25 26.25H11.75C7.97876 26.25 6.09315 26.25 4.92157 25.0784C3.75 23.9069 3.75 22.0212 3.75 18.25V11.75Z" stroke="#F9D949" stroke-width="2"/>
<path fill-rule="evenodd" clip-rule="evenodd" d="M24.25 17.8352L23.5355 17.1208L23.489 17.0742C22.8622 16.4474 22.3221 15.9072 21.8315 15.5329C21.3056 15.1317 20.7208 14.8279 20 14.8279C19.2792 14.8279 18.6944 15.1317 18.1685 15.5329C17.6779 15.9072 17.1378 16.4474 16.511 17.0742L16.4645 17.1208L16.3817 17.2035C15.8853 17.7 15.5912 17.9904 15.3628 18.1599L15.3528 18.1673L15.3463 18.1568C15.1973 17.9145 15.032 17.5356 14.7555 16.8903L14.4965 16.286L14.465 16.2126L14.465 16.2126C13.9647 15.045 13.5452 14.0662 13.1125 13.3628C12.66 12.6273 12.0695 11.9851 11.1427 11.8066C10.2159 11.6282 9.42913 12.0051 8.73581 12.52C8.07283 13.0123 7.31986 13.7653 6.42165 14.6636L6.36521 14.72L5.75 15.3353V18.1637L7.77943 16.1343C8.74907 15.1646 9.39807 14.5193 9.92817 14.1257C10.4418 13.7443 10.6493 13.7484 10.7645 13.7706C10.8797 13.7927 11.0739 13.866 11.4091 14.4109C11.7551 14.9732 12.118 15.8134 12.6582 17.0738L12.9172 17.6782L12.944 17.7406C13.1843 18.3017 13.4068 18.8211 13.6429 19.2048C13.8985 19.6202 14.2928 20.0835 14.9591 20.2119C15.6254 20.3402 16.1636 20.0564 16.5552 19.7656C16.9169 19.4971 17.3163 19.0975 17.7479 18.6658L17.7959 18.6177L17.8787 18.535C18.5653 17.8483 19.0107 17.406 19.3817 17.1229C19.7296 16.8574 19.8923 16.8279 20 16.8279C20.1077 16.8279 20.2704 16.8574 20.6183 17.1229C20.9893 17.406 21.4347 17.8483 22.1213 18.535L24.2334 20.6471C24.249 19.9843 24.25 19.1989 24.25 18.2495V17.8352ZM15.217 18.2521C15.2164 18.2523 15.2161 18.2524 15.2161 18.2525C15.216 18.2526 15.2175 18.2521 15.2205 18.2508C15.2189 18.2513 15.2177 18.2518 15.217 18.2521ZM15.4482 18.2972C15.4482 18.2971 15.447 18.2959 15.4447 18.294C15.4457 18.295 15.4465 18.2957 15.4471 18.2963C15.4478 18.297 15.4482 18.2973 15.4482 18.2972Z" fill="#F9D949"/>
<circle cx="20.625" cy="9.375" r="1.875" fill="#F9D949"/>
</svg>
