<svg width="136" height="30" viewBox="0 0 136 30" fill="none" xmlns="http://www.w3.org/2000/svg">
<path d="M19.375 6.25C21.1306 6.25 22.0084 6.25 22.6389 6.67133C22.9119 6.85372 23.1463 7.0881 23.3287 7.36107C23.75 7.99163 23.75 8.86942 23.75 10.625V22.5C23.75 24.857 23.75 26.0355 23.0178 26.7678C22.2855 27.5 21.107 27.5 18.75 27.5H11.25C8.89298 27.5 7.71447 27.5 6.98223 26.7678C6.25 26.0355 6.25 24.857 6.25 22.5V10.625C6.25 8.86942 6.25 7.99163 6.67133 7.36107C6.85372 7.0881 7.0881 6.85372 7.36107 6.67133C7.99163 6.25 8.86942 6.25 10.625 6.25" stroke="#B1B6C4" stroke-width="2"/>
<path d="M11.25 6.25C11.25 4.86929 12.3693 3.75 13.75 3.75H16.25C17.6307 3.75 18.75 4.86929 18.75 6.25C18.75 7.63071 17.6307 8.75 16.25 8.75H13.75C12.3693 8.75 11.25 7.63071 11.25 6.25Z" stroke="#B1B6C4" stroke-width="2"/>
<path d="M11.25 15L18.75 15" stroke="#B1B6C4" stroke-width="2" stroke-linecap="round"/>
<path d="M11.25 20L16.25 20" stroke="#B1B6C4" stroke-width="2" stroke-linecap="round"/>
<path d="M56.78 20.16H61.48V22H54.5V8.1H56.78V20.16ZM62.6267 16.44C62.6267 15.3333 62.8534 14.3533 63.3067 13.5C63.7734 12.6467 64.4001 11.9867 65.1867 11.52C65.9867 11.04 66.8667 10.8 67.8267 10.8C68.6934 10.8 69.4467 10.9733 70.0867 11.32C70.7401 11.6533 71.2601 12.0733 71.6467 12.58V10.98H73.9467V22H71.6467V20.36C71.2601 20.88 70.7334 21.3133 70.0667 21.66C69.4001 22.0067 68.6401 22.18 67.7867 22.18C66.8401 22.18 65.9734 21.94 65.1867 21.46C64.4001 20.9667 63.7734 20.2867 63.3067 19.42C62.8534 18.54 62.6267 17.5467 62.6267 16.44ZM71.6467 16.48C71.6467 15.72 71.4867 15.06 71.1667 14.5C70.8601 13.94 70.4534 13.5133 69.9467 13.22C69.4401 12.9267 68.8934 12.78 68.3067 12.78C67.7201 12.78 67.1734 12.9267 66.6667 13.22C66.1601 13.5 65.7467 13.92 65.4267 14.48C65.1201 15.0267 64.9667 15.68 64.9667 16.44C64.9667 17.2 65.1201 17.8667 65.4267 18.44C65.7467 19.0133 66.1601 19.4533 66.6667 19.76C67.1867 20.0533 67.7334 20.2 68.3067 20.2C68.8934 20.2 69.4401 20.0533 69.9467 19.76C70.4534 19.4667 70.8601 19.04 71.1667 18.48C71.4867 17.9067 71.6467 17.24 71.6467 16.48ZM79.2214 12.6C79.6081 12.0933 80.1347 11.6667 80.8014 11.32C81.4681 10.9733 82.2214 10.8 83.0614 10.8C84.0214 10.8 84.8947 11.04 85.6814 11.52C86.4814 11.9867 87.1081 12.6467 87.5614 13.5C88.0147 14.3533 88.2414 15.3333 88.2414 16.44C88.2414 17.5467 88.0147 18.54 87.5614 19.42C87.1081 20.2867 86.4814 20.9667 85.6814 21.46C84.8947 21.94 84.0214 22.18 83.0614 22.18C82.2214 22.18 81.4747 22.0133 80.8214 21.68C80.1681 21.3333 79.6347 20.9067 79.2214 20.4V27.24H76.9414V10.98H79.2214V12.6ZM85.9214 16.44C85.9214 15.68 85.7614 15.0267 85.4414 14.48C85.1347 13.92 84.7214 13.5 84.2014 13.22C83.6947 12.9267 83.1481 12.78 82.5614 12.78C81.9881 12.78 81.4414 12.9267 80.9214 13.22C80.4147 13.5133 80.0014 13.94 79.6814 14.5C79.3747 15.06 79.2214 15.72 79.2214 16.48C79.2214 17.24 79.3747 17.9067 79.6814 18.48C80.0014 19.04 80.4147 19.4667 80.9214 19.76C81.4414 20.0533 81.9881 20.2 82.5614 20.2C83.1481 20.2 83.6947 20.0533 84.2014 19.76C84.7214 19.4533 85.1347 19.0133 85.4414 18.44C85.7614 17.8667 85.9214 17.2 85.9214 16.44ZM95.2761 22.18C94.2361 22.18 93.2961 21.9467 92.4561 21.48C91.6161 21 90.9561 20.3333 90.4761 19.48C89.9961 18.6133 89.7561 17.6133 89.7561 16.48C89.7561 15.36 90.0028 14.3667 90.4961 13.5C90.9894 12.6333 91.6628 11.9667 92.5161 11.5C93.3694 11.0333 94.3228 10.8 95.3761 10.8C96.4294 10.8 97.3828 11.0333 98.2361 11.5C99.0894 11.9667 99.7628 12.6333 100.256 13.5C100.749 14.3667 100.996 15.36 100.996 16.48C100.996 17.6 100.743 18.5933 100.236 19.46C99.7294 20.3267 99.0361 21 98.1561 21.48C97.2894 21.9467 96.3294 22.18 95.2761 22.18ZM95.2761 20.2C95.8628 20.2 96.4094 20.06 96.9161 19.78C97.4361 19.5 97.8561 19.08 98.1761 18.52C98.4961 17.96 98.6561 17.28 98.6561 16.48C98.6561 15.68 98.5028 15.0067 98.1961 14.46C97.8894 13.9 97.4828 13.48 96.9761 13.2C96.4694 12.92 95.9228 12.78 95.3361 12.78C94.7494 12.78 94.2028 12.92 93.6961 13.2C93.2028 13.48 92.8094 13.9 92.5161 14.46C92.2228 15.0067 92.0761 15.68 92.0761 16.48C92.0761 17.6667 92.3761 18.5867 92.9761 19.24C93.5894 19.88 94.3561 20.2 95.2761 20.2ZM105.53 12.58C105.863 12.02 106.303 11.5867 106.85 11.28C107.41 10.96 108.07 10.8 108.83 10.8V13.16H108.25C107.357 13.16 106.677 13.3867 106.21 13.84C105.757 14.2933 105.53 15.08 105.53 16.2V22H103.25V10.98H105.53V12.58ZM110.166 16.44C110.166 15.3333 110.392 14.3533 110.846 13.5C111.312 12.6467 111.939 11.9867 112.726 11.52C113.526 11.04 114.406 10.8 115.366 10.8C116.232 10.8 116.986 10.9733 117.626 11.32C118.279 11.6533 118.799 12.0733 119.186 12.58V10.98H121.486V22H119.186V20.36C118.799 20.88 118.272 21.3133 117.606 21.66C116.939 22.0067 116.179 22.18 115.326 22.18C114.379 22.18 113.512 21.94 112.726 21.46C111.939 20.9667 111.312 20.2867 110.846 19.42C110.392 18.54 110.166 17.5467 110.166 16.44ZM119.186 16.48C119.186 15.72 119.026 15.06 118.706 14.5C118.399 13.94 117.992 13.5133 117.486 13.22C116.979 12.9267 116.432 12.78 115.846 12.78C115.259 12.78 114.712 12.9267 114.206 13.22C113.699 13.5 113.286 13.92 112.966 14.48C112.659 15.0267 112.506 15.68 112.506 16.44C112.506 17.2 112.659 17.8667 112.966 18.44C113.286 19.0133 113.699 19.4533 114.206 19.76C114.726 20.0533 115.272 20.2 115.846 20.2C116.432 20.2 116.979 20.0533 117.486 19.76C117.992 19.4667 118.399 19.04 118.706 18.48C119.026 17.9067 119.186 17.24 119.186 16.48ZM130.04 10.8C130.907 10.8 131.68 10.98 132.36 11.34C133.054 11.7 133.594 12.2333 133.98 12.94C134.367 13.6467 134.56 14.5 134.56 15.5V22H132.3V15.84C132.3 14.8533 132.054 14.1 131.56 13.58C131.067 13.0467 130.394 12.78 129.54 12.78C128.687 12.78 128.007 13.0467 127.5 13.58C127.007 14.1 126.76 14.8533 126.76 15.84V22H124.48V10.98H126.76V12.24C127.134 11.7867 127.607 11.4333 128.18 11.18C128.767 10.9267 129.387 10.8 130.04 10.8Z" fill="#B1B6C4"/>
</svg>
