<svg width="171" height="31" viewBox="0 0 171 31" fill="none" xmlns="http://www.w3.org/2000/svg">
<path d="M63.22 10.24C63.22 10.9467 63.0533 11.6133 62.72 12.24C62.3867 12.8667 61.8533 13.38 61.12 13.78C60.3867 14.1667 59.4467 14.36 58.3 14.36H55.78V20H53.5V6.1H58.3C59.3667 6.1 60.2667 6.28667 61 6.66C61.7467 7.02 62.3 7.51333 62.66 8.14C63.0333 8.76667 63.22 9.46667 63.22 10.24ZM58.3 12.5C59.1667 12.5 59.8133 12.3067 60.24 11.92C60.6667 11.52 60.88 10.96 60.88 10.24C60.88 8.72 60.02 7.96 58.3 7.96H55.78V12.5H58.3ZM75.4945 14.22C75.4945 14.6333 75.4679 15.0067 75.4145 15.34H66.9945C67.0612 16.22 67.3879 16.9267 67.9745 17.46C68.5612 17.9933 69.2812 18.26 70.1345 18.26C71.3612 18.26 72.2279 17.7467 72.7345 16.72H75.1945C74.8612 17.7333 74.2545 18.5667 73.3745 19.22C72.5079 19.86 71.4279 20.18 70.1345 20.18C69.0812 20.18 68.1345 19.9467 67.2945 19.48C66.4679 19 65.8145 18.3333 65.3345 17.48C64.8679 16.6133 64.6345 15.6133 64.6345 14.48C64.6345 13.3467 64.8612 12.3533 65.3145 11.5C65.7812 10.6333 66.4279 9.96667 67.2545 9.5C68.0945 9.03333 69.0545 8.8 70.1345 8.8C71.1745 8.8 72.1012 9.02667 72.9145 9.48C73.7279 9.93333 74.3612 10.5733 74.8145 11.4C75.2679 12.2133 75.4945 13.1533 75.4945 14.22ZM73.1145 13.5C73.1012 12.66 72.8012 11.9867 72.2145 11.48C71.6279 10.9733 70.9012 10.72 70.0345 10.72C69.2479 10.72 68.5745 10.9733 68.0145 11.48C67.4545 11.9733 67.1212 12.6467 67.0145 13.5H73.1145ZM83.2983 8.8C84.1649 8.8 84.9383 8.98 85.6183 9.34C86.3116 9.7 86.8516 10.2333 87.2383 10.94C87.6249 11.6467 87.8183 12.5 87.8183 13.5V20H85.5583V13.84C85.5583 12.8533 85.3116 12.1 84.8183 11.58C84.3249 11.0467 83.6516 10.78 82.7983 10.78C81.9449 10.78 81.2649 11.0467 80.7583 11.58C80.2649 12.1 80.0183 12.8533 80.0183 13.84V20H77.7383V8.98H80.0183V10.24C80.3916 9.78667 80.8649 9.43333 81.4383 9.18C82.0249 8.92667 82.6449 8.8 83.2983 8.8ZM95.1666 8.8C96.0199 8.8 96.7732 8.97333 97.4266 9.32C98.0932 9.65333 98.6132 10.0733 98.9866 10.58V8.98H101.287V20.18C101.287 21.1933 101.073 22.0933 100.647 22.88C100.22 23.68 99.5999 24.3067 98.7866 24.76C97.9866 25.2133 97.0266 25.44 95.9066 25.44C94.4132 25.44 93.1732 25.0867 92.1866 24.38C91.1999 23.6867 90.6399 22.74 90.5066 21.54H92.7666C92.9399 22.1133 93.3066 22.5733 93.8666 22.92C94.4399 23.28 95.1199 23.46 95.9066 23.46C96.8266 23.46 97.5666 23.18 98.1266 22.62C98.6999 22.06 98.9866 21.2467 98.9866 20.18V18.34C98.5999 18.86 98.0732 19.3 97.4066 19.66C96.7532 20.0067 96.0066 20.18 95.1666 20.18C94.2066 20.18 93.3266 19.94 92.5266 19.46C91.7399 18.9667 91.1132 18.2867 90.6466 17.42C90.1932 16.54 89.9666 15.5467 89.9666 14.44C89.9666 13.3333 90.1932 12.3533 90.6466 11.5C91.1132 10.6467 91.7399 9.98667 92.5266 9.52C93.3266 9.04 94.2066 8.8 95.1666 8.8ZM98.9866 14.48C98.9866 13.72 98.8266 13.06 98.5066 12.5C98.1999 11.94 97.7932 11.5133 97.2866 11.22C96.7799 10.9267 96.2332 10.78 95.6466 10.78C95.0599 10.78 94.5132 10.9267 94.0066 11.22C93.4999 11.5 93.0866 11.92 92.7666 12.48C92.4599 13.0267 92.3066 13.68 92.3066 14.44C92.3066 15.2 92.4599 15.8667 92.7666 16.44C93.0866 17.0133 93.4999 17.4533 94.0066 17.76C94.5266 18.0533 95.0732 18.2 95.6466 18.2C96.2332 18.2 96.7799 18.0533 97.2866 17.76C97.7932 17.4667 98.1999 17.04 98.5066 16.48C98.8266 15.9067 98.9866 15.24 98.9866 14.48ZM103.521 14.44C103.521 13.3333 103.748 12.3533 104.201 11.5C104.668 10.6467 105.295 9.98667 106.081 9.52C106.881 9.04 107.761 8.8 108.721 8.8C109.588 8.8 110.341 8.97333 110.981 9.32C111.635 9.65333 112.155 10.0733 112.541 10.58V8.98H114.841V20H112.541V18.36C112.155 18.88 111.628 19.3133 110.961 19.66C110.295 20.0067 109.535 20.18 108.681 20.18C107.735 20.18 106.868 19.94 106.081 19.46C105.295 18.9667 104.668 18.2867 104.201 17.42C103.748 16.54 103.521 15.5467 103.521 14.44ZM112.541 14.48C112.541 13.72 112.381 13.06 112.061 12.5C111.755 11.94 111.348 11.5133 110.841 11.22C110.335 10.9267 109.788 10.78 109.201 10.78C108.615 10.78 108.068 10.9267 107.561 11.22C107.055 11.5 106.641 11.92 106.321 12.48C106.015 13.0267 105.861 13.68 105.861 14.44C105.861 15.2 106.015 15.8667 106.321 16.44C106.641 17.0133 107.055 17.4533 107.561 17.76C108.081 18.0533 108.628 18.2 109.201 18.2C109.788 18.2 110.335 18.0533 110.841 17.76C111.348 17.4667 111.755 17.04 112.061 16.48C112.381 15.9067 112.541 15.24 112.541 14.48ZM120.496 10.84V16.94C120.496 17.3533 120.589 17.6533 120.776 17.84C120.976 18.0133 121.309 18.1 121.776 18.1H123.176V20H121.376C120.349 20 119.563 19.76 119.016 19.28C118.469 18.8 118.196 18.02 118.196 16.94V10.84H116.896V8.98H118.196V6.24H120.496V8.98H123.176V10.84H120.496ZM135.257 8.98V20H132.977V18.7C132.617 19.1533 132.144 19.5133 131.557 19.78C130.984 20.0333 130.371 20.16 129.717 20.16C128.851 20.16 128.071 19.98 127.377 19.62C126.697 19.26 126.157 18.7267 125.757 18.02C125.371 17.3133 125.177 16.46 125.177 15.46V8.98H127.437V15.12C127.437 16.1067 127.684 16.8667 128.177 17.4C128.671 17.92 129.344 18.18 130.197 18.18C131.051 18.18 131.724 17.92 132.217 17.4C132.724 16.8667 132.977 16.1067 132.977 15.12V8.98H135.257ZM140.546 10.58C140.879 10.02 141.319 9.58667 141.866 9.28C142.426 8.96 143.086 8.8 143.846 8.8V11.16H143.266C142.372 11.16 141.692 11.3867 141.226 11.84C140.772 12.2933 140.546 13.08 140.546 14.2V20H138.266V8.98H140.546V10.58ZM145.181 14.44C145.181 13.3333 145.408 12.3533 145.861 11.5C146.328 10.6467 146.955 9.98667 147.741 9.52C148.541 9.04 149.421 8.8 150.381 8.8C151.248 8.8 152.001 8.97333 152.641 9.32C153.295 9.65333 153.815 10.0733 154.201 10.58V8.98H156.501V20H154.201V18.36C153.815 18.88 153.288 19.3133 152.621 19.66C151.955 20.0067 151.195 20.18 150.341 20.18C149.395 20.18 148.528 19.94 147.741 19.46C146.955 18.9667 146.328 18.2867 145.861 17.42C145.408 16.54 145.181 15.5467 145.181 14.44ZM154.201 14.48C154.201 13.72 154.041 13.06 153.721 12.5C153.415 11.94 153.008 11.5133 152.501 11.22C151.995 10.9267 151.448 10.78 150.861 10.78C150.275 10.78 149.728 10.9267 149.221 11.22C148.715 11.5 148.301 11.92 147.981 12.48C147.675 13.0267 147.521 13.68 147.521 14.44C147.521 15.2 147.675 15.8667 147.981 16.44C148.301 17.0133 148.715 17.4533 149.221 17.76C149.741 18.0533 150.288 18.2 150.861 18.2C151.448 18.2 151.995 18.0533 152.501 17.76C153.008 17.4667 153.415 17.04 153.721 16.48C154.041 15.9067 154.201 15.24 154.201 14.48ZM165.056 8.8C165.923 8.8 166.696 8.98 167.376 9.34C168.069 9.7 168.609 10.2333 168.996 10.94C169.383 11.6467 169.576 12.5 169.576 13.5V20H167.316V13.84C167.316 12.8533 167.069 12.1 166.576 11.58C166.083 11.0467 165.409 10.78 164.556 10.78C163.703 10.78 163.023 11.0467 162.516 11.58C162.023 12.1 161.776 12.8533 161.776 13.84V20H159.496V8.98H161.776V10.24C162.149 9.78667 162.623 9.43333 163.196 9.18C163.783 8.92667 164.403 8.8 165.056 8.8Z" fill="#B1B6C4"/>
<path d="M7.5 16L7.5 7.25" stroke="#B1B6C4" stroke-width="2" stroke-linecap="round"/>
<path d="M15 11L15 7.25" stroke="#B1B6C4" stroke-width="2" stroke-linecap="round"/>
<path d="M7.5 24.75L7.5 21" stroke="#B1B6C4" stroke-width="2" stroke-linecap="round"/>
<path d="M22.5 24.75L22.5 22.25" stroke="#B1B6C4" stroke-width="2" stroke-linecap="round"/>
<path d="M15 24.75L15 16" stroke="#B1B6C4" stroke-width="2" stroke-linecap="round"/>
<path d="M12.5 11L17.5 11" stroke="#B1B6C4" stroke-width="2" stroke-linecap="round"/>
<path d="M5 21H10" stroke="#B1B6C4" stroke-width="2" stroke-linecap="round"/>
<path d="M20 22.25H25" stroke="#B1B6C4" stroke-width="2" stroke-linecap="round"/>
<path d="M22.5 17.25L22.5 7.25" stroke="#B1B6C4" stroke-width="2" stroke-linecap="round"/>
</svg>
