<svg width="210" height="31" viewBox="0 0 210 31" fill="none" xmlns="http://www.w3.org/2000/svg">
<path d="M62.48 6.1V7.96H58.78V20H56.5V7.96H52.78V6.1H62.48ZM64.0291 14.44C64.0291 13.3333 64.2557 12.3533 64.7091 11.5C65.1757 10.6467 65.8024 9.98667 66.5891 9.52C67.3891 9.04 68.2691 8.8 69.2291 8.8C70.0957 8.8 70.8491 8.97333 71.4891 9.32C72.1424 9.65333 72.6624 10.0733 73.0491 10.58V8.98H75.3491V20H73.0491V18.36C72.6624 18.88 72.1357 19.3133 71.4691 19.66C70.8024 20.0067 70.0424 20.18 69.1891 20.18C68.2424 20.18 67.3757 19.94 66.5891 19.46C65.8024 18.9667 65.1757 18.2867 64.7091 17.42C64.2557 16.54 64.0291 15.5467 64.0291 14.44ZM73.0491 14.48C73.0491 13.72 72.8891 13.06 72.5691 12.5C72.2624 11.94 71.8557 11.5133 71.3491 11.22C70.8424 10.9267 70.2957 10.78 69.7091 10.78C69.1224 10.78 68.5757 10.9267 68.0691 11.22C67.5624 11.5 67.1491 11.92 66.8291 12.48C66.5224 13.0267 66.3691 13.68 66.3691 14.44C66.3691 15.2 66.5224 15.8667 66.8291 16.44C67.1491 17.0133 67.5624 17.4533 68.0691 17.76C68.5891 18.0533 69.1357 18.2 69.7091 18.2C70.2957 18.2 70.8424 18.0533 71.3491 17.76C71.8557 17.4667 72.2624 17.04 72.5691 16.48C72.8891 15.9067 73.0491 15.24 73.0491 14.48ZM91.6838 8.8C92.5504 8.8 93.3238 8.98 94.0038 9.34C94.6971 9.7 95.2371 10.2333 95.6238 10.94C96.0238 11.6467 96.2238 12.5 96.2238 13.5V20H93.9638V13.84C93.9638 12.8533 93.7171 12.1 93.2238 11.58C92.7304 11.0467 92.0571 10.78 91.2038 10.78C90.3504 10.78 89.6704 11.0467 89.1638 11.58C88.6704 12.1 88.4238 12.8533 88.4238 13.84V20H86.1638V13.84C86.1638 12.8533 85.9171 12.1 85.4238 11.58C84.9304 11.0467 84.2571 10.78 83.4038 10.78C82.5504 10.78 81.8704 11.0467 81.3638 11.58C80.8704 12.1 80.6238 12.8533 80.6238 13.84V20H78.3438V8.98H80.6238V10.24C80.9971 9.78667 81.4704 9.43333 82.0438 9.18C82.6171 8.92667 83.2304 8.8 83.8838 8.8C84.7638 8.8 85.5504 8.98667 86.2438 9.36C86.9371 9.73333 87.4704 10.2733 87.8438 10.98C88.1771 10.3133 88.6971 9.78667 89.4038 9.4C90.1104 9 90.8704 8.8 91.6838 8.8ZM101.405 10.62C101.792 10.0867 102.318 9.65333 102.985 9.32C103.665 8.97333 104.418 8.8 105.245 8.8C106.218 8.8 107.098 9.03333 107.885 9.5C108.672 9.96667 109.292 10.6333 109.745 11.5C110.198 12.3533 110.425 13.3333 110.425 14.44C110.425 15.5467 110.198 16.54 109.745 17.42C109.292 18.2867 108.665 18.9667 107.865 19.46C107.078 19.94 106.205 20.18 105.245 20.18C104.392 20.18 103.632 20.0133 102.965 19.68C102.312 19.3467 101.792 18.92 101.405 18.4V20H99.125V5.2H101.405V10.62ZM108.105 14.44C108.105 13.68 107.945 13.0267 107.625 12.48C107.318 11.92 106.905 11.5 106.385 11.22C105.878 10.9267 105.332 10.78 104.745 10.78C104.172 10.78 103.625 10.9267 103.105 11.22C102.598 11.5133 102.185 11.94 101.865 12.5C101.558 13.06 101.405 13.72 101.405 14.48C101.405 15.24 101.558 15.9067 101.865 16.48C102.185 17.04 102.598 17.4667 103.105 17.76C103.625 18.0533 104.172 18.2 104.745 18.2C105.332 18.2 105.878 18.0533 106.385 17.76C106.905 17.4533 107.318 17.0133 107.625 16.44C107.945 15.8667 108.105 15.2 108.105 14.44ZM111.92 14.44C111.92 13.3333 112.146 12.3533 112.6 11.5C113.066 10.6467 113.693 9.98667 114.48 9.52C115.28 9.04 116.16 8.8 117.12 8.8C117.986 8.8 118.74 8.97333 119.38 9.32C120.033 9.65333 120.553 10.0733 120.94 10.58V8.98H123.24V20H120.94V18.36C120.553 18.88 120.026 19.3133 119.36 19.66C118.693 20.0067 117.933 20.18 117.08 20.18C116.133 20.18 115.266 19.94 114.48 19.46C113.693 18.9667 113.066 18.2867 112.6 17.42C112.146 16.54 111.92 15.5467 111.92 14.44ZM120.94 14.48C120.94 13.72 120.78 13.06 120.46 12.5C120.153 11.94 119.746 11.5133 119.24 11.22C118.733 10.9267 118.186 10.78 117.6 10.78C117.013 10.78 116.466 10.9267 115.96 11.22C115.453 11.5 115.04 11.92 114.72 12.48C114.413 13.0267 114.26 13.68 114.26 14.44C114.26 15.2 114.413 15.8667 114.72 16.44C115.04 17.0133 115.453 17.4533 115.96 17.76C116.48 18.0533 117.026 18.2 117.6 18.2C118.186 18.2 118.733 18.0533 119.24 17.76C119.746 17.4667 120.153 17.04 120.46 16.48C120.78 15.9067 120.94 15.24 120.94 14.48ZM131.934 8.8C132.774 8.8 133.521 8.98 134.174 9.34C134.841 9.7 135.361 10.2333 135.734 10.94C136.121 11.6467 136.314 12.5 136.314 13.5V20H134.054V13.84C134.054 12.8533 133.808 12.1 133.314 11.58C132.821 11.0467 132.148 10.78 131.294 10.78C130.441 10.78 129.761 11.0467 129.254 11.58C128.761 12.1 128.514 12.8533 128.514 13.84V20H126.234V5.2H128.514V10.26C128.901 9.79333 129.388 9.43333 129.974 9.18C130.574 8.92667 131.228 8.8 131.934 8.8ZM152.798 17.16H146.978L145.978 20H143.598L148.578 6.08H151.218L156.198 20H153.798L152.798 17.16ZM152.158 15.3L149.898 8.84L147.618 15.3H152.158ZM157.603 14.44C157.603 13.3333 157.83 12.3533 158.283 11.5C158.75 10.6467 159.377 9.98667 160.163 9.52C160.963 9.04 161.85 8.8 162.823 8.8C163.543 8.8 164.25 8.96 164.943 9.28C165.65 9.58667 166.21 10 166.623 10.52V5.2H168.923V20H166.623V18.34C166.25 18.8733 165.73 19.3133 165.063 19.66C164.41 20.0067 163.657 20.18 162.803 20.18C161.843 20.18 160.963 19.94 160.163 19.46C159.377 18.9667 158.75 18.2867 158.283 17.42C157.83 16.54 157.603 15.5467 157.603 14.44ZM166.623 14.48C166.623 13.72 166.463 13.06 166.143 12.5C165.837 11.94 165.43 11.5133 164.923 11.22C164.417 10.9267 163.87 10.78 163.283 10.78C162.697 10.78 162.15 10.9267 161.643 11.22C161.137 11.5 160.723 11.92 160.403 12.48C160.097 13.0267 159.943 13.68 159.943 14.44C159.943 15.2 160.097 15.8667 160.403 16.44C160.723 17.0133 161.137 17.4533 161.643 17.76C162.163 18.0533 162.71 18.2 163.283 18.2C163.87 18.2 164.417 18.0533 164.923 17.76C165.43 17.4667 165.837 17.04 166.143 16.48C166.463 15.9067 166.623 15.24 166.623 14.48ZM185.258 8.8C186.125 8.8 186.898 8.98 187.578 9.34C188.271 9.7 188.811 10.2333 189.198 10.94C189.598 11.6467 189.798 12.5 189.798 13.5V20H187.538V13.84C187.538 12.8533 187.291 12.1 186.798 11.58C186.305 11.0467 185.631 10.78 184.778 10.78C183.925 10.78 183.245 11.0467 182.738 11.58C182.245 12.1 181.998 12.8533 181.998 13.84V20H179.738V13.84C179.738 12.8533 179.491 12.1 178.998 11.58C178.505 11.0467 177.831 10.78 176.978 10.78C176.125 10.78 175.445 11.0467 174.938 11.58C174.445 12.1 174.198 12.8533 174.198 13.84V20H171.918V8.98H174.198V10.24C174.571 9.78667 175.045 9.43333 175.618 9.18C176.191 8.92667 176.805 8.8 177.458 8.8C178.338 8.8 179.125 8.98667 179.818 9.36C180.511 9.73333 181.045 10.2733 181.418 10.98C181.751 10.3133 182.271 9.78667 182.978 9.4C183.685 9 184.445 8.8 185.258 8.8ZM193.859 7.52C193.446 7.52 193.099 7.38 192.819 7.1C192.539 6.82 192.399 6.47333 192.399 6.06C192.399 5.64667 192.539 5.3 192.819 5.02C193.099 4.74 193.446 4.6 193.859 4.6C194.259 4.6 194.599 4.74 194.879 5.02C195.159 5.3 195.299 5.64667 195.299 6.06C195.299 6.47333 195.159 6.82 194.879 7.1C194.599 7.38 194.259 7.52 193.859 7.52ZM194.979 8.98V20H192.699V8.98H194.979ZM203.533 8.8C204.399 8.8 205.173 8.98 205.853 9.34C206.546 9.7 207.086 10.2333 207.473 10.94C207.859 11.6467 208.053 12.5 208.053 13.5V20H205.793V13.84C205.793 12.8533 205.546 12.1 205.053 11.58C204.559 11.0467 203.886 10.78 203.033 10.78C202.179 10.78 201.499 11.0467 200.993 11.58C200.499 12.1 200.253 12.8533 200.253 13.84V20H197.973V8.98H200.253V10.24C200.626 9.78667 201.099 9.43333 201.673 9.18C202.259 8.92667 202.879 8.8 203.533 8.8Z" fill="#B1B6C4"/>
<circle cx="11.25" cy="12.25" r="4" stroke="#B1B6C4" stroke-width="2" stroke-linecap="round"/>
<path d="M15.1184 12.125C15.4831 11.4934 16.0838 11.0325 16.7882 10.8437C17.4927 10.6549 18.2434 10.7538 18.875 11.1184C19.5066 11.4831 19.9675 12.0838 20.1563 12.7882C20.3451 13.4927 20.2462 14.2434 19.8816 14.875C19.5169 15.5066 18.9162 15.9675 18.2118 16.1563C17.5073 16.3451 16.7566 16.2462 16.125 15.8816C15.4934 15.5169 15.0325 14.9162 14.8437 14.2118C14.6549 13.5073 14.7538 12.7566 15.1184 12.125L15.1184 12.125Z" stroke="#B1B6C4" stroke-width="2"/>
<path d="M17.3516 24.75L16.3713 24.9474L16.5329 25.75H17.3516V24.75ZM22.2402 23.65L21.2865 23.9508V23.9508L22.2402 23.65ZM14.7256 20.6382L14.1207 19.8418L12.9642 20.7203L14.1975 21.4873L14.7256 20.6382ZM21.3668 23.75H17.3516V25.75H21.3668V23.75ZM21.2865 23.9508C21.2814 23.9346 21.2768 23.9031 21.2846 23.8648C21.292 23.8286 21.3073 23.8011 21.3219 23.7832C21.3502 23.7485 21.3736 23.75 21.3668 23.75V25.75C22.5259 25.75 23.6122 24.6758 23.1939 23.3493L21.2865 23.9508ZM17.4996 20.75C19.8499 20.75 20.8523 22.574 21.2865 23.9508L23.1939 23.3493C22.6996 21.7818 21.2467 18.75 17.4996 18.75V20.75ZM15.3304 21.4345C15.8538 21.037 16.5466 20.75 17.4996 20.75V18.75C16.1027 18.75 14.9864 19.1843 14.1207 19.8418L15.3304 21.4345ZM14.1975 21.4873C15.5826 22.3488 16.148 23.839 16.3713 24.9474L18.3319 24.5526C18.0649 23.227 17.3281 21.0792 15.2537 19.789L14.1975 21.4873Z" fill="#B1B6C4"/>
<path d="M11.25 19.75C15.9226 19.75 17.1019 23.2433 17.3995 25.0066C17.4914 25.5512 17.0523 26 16.5 26H6C5.44772 26 5.00856 25.5512 5.10048 25.0066C5.39812 23.2433 6.57743 19.75 11.25 19.75Z" stroke="#B1B6C4" stroke-width="2" stroke-linecap="round"/>
<path d="M19 4V8" stroke="#B1B6C4" stroke-width="2" stroke-linecap="round"/>
<path d="M21 6L17 6" stroke="#B1B6C4" stroke-width="2" stroke-linecap="round"/>
</svg>
